<svg xmlns="http://www.w3.org/2000/svg" xmlns:xlink="http://www.w3.org/1999/xlink" width="40" zoomAndPan="magnify" viewBox="0 0 30 30" height="40" preserveAspectRatio="xMidYMid meet" version="1.0"><defs><g/></defs><g fill="#fa6e03" fill-opacity="1"><g transform="translate(87.416828, 228.864315)"><g><path d="M 61.109375 -82.90625 C 60.421875 -82.101562 59.675781 -81.414062 58.875 -80.84375 C 58.070312 -80.269531 57.097656 -79.875 55.953125 -79.65625 C 55.273438 -79.539062 54.617188 -79.367188 53.984375 -79.140625 C 53.359375 -78.910156 52.757812 -78.738281 52.1875 -78.625 C 50.582031 -78.507812 48.945312 -78.453125 47.28125 -78.453125 C 45.625 -78.453125 43.941406 -78.394531 42.234375 -78.28125 C 39.828125 -79.414062 38.566406 -81.359375 38.453125 -84.109375 C 38.335938 -85.367188 38.164062 -86.570312 37.9375 -87.71875 C 37.707031 -88.863281 37.476562 -90.066406 37.25 -91.328125 C 36.675781 -91.441406 36.101562 -91.5 35.53125 -91.5 C 34.957031 -91.5 34.382812 -91.5 33.8125 -91.5 C 32.550781 -91.5 31.265625 -91.382812 29.953125 -91.15625 C 28.640625 -90.925781 27.351562 -90.523438 26.09375 -89.953125 C 25.976562 -89.378906 25.804688 -88.804688 25.578125 -88.234375 C 25.347656 -87.660156 25.175781 -87.085938 25.0625 -86.515625 C 25.0625 -84.566406 25.0625 -82.59375 25.0625 -80.59375 C 25.0625 -78.59375 25.0625 -76.5625 25.0625 -74.5 C 25.519531 -74.5 25.921875 -74.5 26.265625 -74.5 C 26.609375 -74.5 27.007812 -74.5 27.46875 -74.5 C 29.070312 -74.613281 30.644531 -74.671875 32.1875 -74.671875 C 33.726562 -74.671875 35.242188 -74.726562 36.734375 -74.84375 C 38.910156 -74.84375 40.769531 -74.238281 42.3125 -73.03125 C 43.851562 -71.832031 44.625 -70.085938 44.625 -67.796875 C 44.738281 -66.203125 44.878906 -64.570312 45.046875 -62.90625 C 45.222656 -61.25 45.367188 -59.617188 45.484375 -58.015625 C 45.484375 -57.097656 45.453125 -56.15625 45.390625 -55.1875 C 45.335938 -54.21875 45.253906 -53.273438 45.140625 -52.359375 C 44.796875 -50.066406 43.539062 -48.632812 41.375 -48.0625 C 40.570312 -47.832031 39.796875 -47.660156 39.046875 -47.546875 C 38.304688 -47.429688 37.59375 -47.316406 36.90625 -47.203125 C 35.757812 -47.085938 34.671875 -47.03125 33.640625 -47.03125 C 32.609375 -47.03125 31.582031 -47.03125 30.5625 -47.03125 C 29.875 -46.914062 29.1875 -46.828125 28.5 -46.765625 C 27.8125 -46.710938 27.125 -46.570312 26.4375 -46.34375 C 26.207031 -45.882812 26.09375 -45.539062 26.09375 -45.3125 C 26.09375 -43.03125 26.09375 -40.710938 26.09375 -38.359375 C 26.09375 -36.015625 26.09375 -33.695312 26.09375 -31.40625 C 26.320312 -28.207031 28.035156 -26.4375 31.234375 -26.09375 C 31.347656 -26.09375 31.460938 -26.09375 31.578125 -26.09375 C 31.691406 -26.09375 31.804688 -26.09375 31.921875 -26.09375 C 32.835938 -26.09375 33.722656 -26.09375 34.578125 -26.09375 C 35.441406 -26.09375 36.332031 -26.035156 37.25 -25.921875 C 38.164062 -27.179688 38.59375 -28.582031 38.53125 -30.125 C 38.476562 -31.664062 38.679688 -33.296875 39.140625 -35.015625 C 39.484375 -35.703125 40.425781 -36.242188 41.96875 -36.640625 C 43.507812 -37.046875 45.253906 -37.304688 47.203125 -37.421875 C 49.148438 -37.535156 50.976562 -37.617188 52.6875 -37.671875 C 54.40625 -37.734375 55.609375 -37.765625 56.296875 -37.765625 C 57.328125 -37.878906 58.210938 -37.617188 58.953125 -36.984375 C 59.703125 -36.359375 60.304688 -35.644531 60.765625 -34.84375 C 61.453125 -33.8125 61.796875 -32.722656 61.796875 -31.578125 C 62.023438 -30.097656 62.195312 -28.554688 62.3125 -26.953125 C 62.425781 -25.347656 62.484375 -23.742188 62.484375 -22.140625 C 62.484375 -20.421875 62.484375 -18.703125 62.484375 -16.984375 C 62.484375 -15.273438 62.367188 -13.5625 62.140625 -11.84375 C 61.796875 -9.09375 60.535156 -6.863281 58.359375 -5.15625 C 56.410156 -3.664062 53.71875 -2.546875 50.28125 -1.796875 C 46.851562 -1.054688 43.335938 -0.597656 39.734375 -0.421875 C 36.128906 -0.253906 33.015625 -0.171875 30.390625 -0.171875 C 28.210938 -0.171875 26.09375 -0.226562 24.03125 -0.34375 C 21.96875 -0.457031 19.851562 -0.6875 17.6875 -1.03125 C 12.1875 -1.71875 8.347656 -3.234375 6.171875 -5.578125 C 4.003906 -7.921875 2.40625 -11.785156 1.375 -17.171875 C 0.570312 -20.828125 0.195312 -24.570312 0.25 -28.40625 C 0.3125 -32.238281 0.285156 -36.046875 0.171875 -39.828125 C 0.0546875 -47.492188 0.0546875 -55.273438 0.171875 -63.171875 C 0.285156 -66.140625 0.457031 -69.082031 0.6875 -72 C 0.914062 -74.925781 1.085938 -77.816406 1.203125 -80.671875 C 1.429688 -84.335938 1.515625 -88.113281 1.453125 -92 C 1.398438 -95.894531 1.832031 -99.671875 2.75 -103.328125 C 3.664062 -106.992188 5.550781 -110.257812 8.40625 -113.125 C 10.582031 -115.40625 13.242188 -117.085938 16.390625 -118.171875 C 19.535156 -119.265625 22.796875 -119.984375 26.171875 -120.328125 C 29.546875 -120.671875 32.722656 -120.84375 35.703125 -120.84375 C 37.535156 -120.84375 39.363281 -120.8125 41.1875 -120.75 C 43.019531 -120.695312 44.851562 -120.671875 46.6875 -120.671875 C 48.976562 -120.671875 51.46875 -120.441406 54.15625 -119.984375 C 56.84375 -119.523438 58.644531 -118.097656 59.5625 -115.703125 C 59.90625 -114.898438 60.25 -114.097656 60.59375 -113.296875 C 60.9375 -112.492188 61.28125 -111.691406 61.625 -110.890625 C 61.96875 -109.972656 62.109375 -109 62.046875 -107.96875 C 61.992188 -106.9375 61.851562 -105.960938 61.625 -105.046875 C 61.507812 -104.472656 61.453125 -103.898438 61.453125 -103.328125 C 61.453125 -102.765625 61.453125 -102.195312 61.453125 -101.625 C 61.335938 -98.53125 61.25 -95.410156 61.1875 -92.265625 C 61.132812 -89.117188 61.109375 -86 61.109375 -82.90625 Z M 61.109375 -82.90625 "/></g></g></g><g fill="#fa6e03" fill-opacity="1"><g transform="translate(153.326898, 228.864315)"><g><path d="M 39.3125 -77.421875 C 38.28125 -79.816406 37.765625 -82.1875 37.765625 -84.53125 C 37.765625 -86.882812 37.648438 -89.207031 37.421875 -91.5 C 36.617188 -91.613281 35.816406 -91.695312 35.015625 -91.75 C 34.210938 -91.8125 33.410156 -91.84375 32.609375 -91.84375 C 30.441406 -91.84375 28.382812 -91.441406 26.4375 -90.640625 C 25.632812 -89.492188 25.175781 -88.316406 25.0625 -87.109375 C 24.945312 -85.910156 24.832031 -84.679688 24.71875 -83.421875 C 28.382812 -79.535156 32.25 -75.875 36.3125 -72.4375 C 40.375 -69.007812 44.632812 -65.804688 49.09375 -62.828125 C 50.925781 -61.679688 52.5 -60.304688 53.8125 -58.703125 C 55.125 -57.097656 56.46875 -55.5 57.84375 -53.90625 C 58.644531 -52.414062 59.21875 -50.492188 59.5625 -48.140625 C 59.90625 -45.796875 60.160156 -43.421875 60.328125 -41.015625 C 60.503906 -38.617188 60.59375 -36.5625 60.59375 -34.84375 C 60.707031 -31.53125 60.734375 -28.238281 60.671875 -24.96875 C 60.617188 -21.707031 60.535156 -18.421875 60.421875 -15.109375 C 60.304688 -13.617188 60.160156 -12.15625 59.984375 -10.71875 C 59.816406 -9.289062 59.617188 -7.832031 59.390625 -6.34375 C 59.273438 -5.664062 59.046875 -5.066406 58.703125 -4.546875 C 58.359375 -4.035156 57.898438 -3.492188 57.328125 -2.921875 C 56.066406 -2.003906 54.691406 -1.316406 53.203125 -0.859375 C 51.722656 -0.398438 50.179688 -0.113281 48.578125 0 C 46.515625 0.113281 44.453125 0.171875 42.390625 0.171875 C 40.335938 0.171875 38.28125 0.226562 36.21875 0.34375 C 34.84375 0.457031 33.5 0.539062 32.1875 0.59375 C 30.875 0.65625 29.53125 0.6875 28.15625 0.6875 C 26.4375 0.6875 24.71875 0.597656 23 0.421875 C 21.28125 0.253906 19.625 0.113281 18.03125 0 C 17.113281 -0.113281 16.195312 -0.195312 15.28125 -0.25 C 14.363281 -0.3125 13.445312 -0.398438 12.53125 -0.515625 C 11.382812 -0.742188 10.238281 -0.914062 9.09375 -1.03125 C 7.945312 -1.144531 6.804688 -1.316406 5.671875 -1.546875 C 4.867188 -1.773438 4.238281 -2.117188 3.78125 -2.578125 C 2.976562 -3.492188 2.289062 -4.4375 1.71875 -5.40625 C 1.144531 -6.375 0.800781 -7.488281 0.6875 -8.75 C 0.34375 -12.414062 0.171875 -16.019531 0.171875 -19.5625 C 0.171875 -23.113281 0.171875 -26.664062 0.171875 -30.21875 C 0.171875 -33.757812 0.859375 -36.957031 2.234375 -39.8125 C 3.609375 -42.675781 6.410156 -44.222656 10.640625 -44.453125 C 12.242188 -44.453125 13.757812 -44.394531 15.1875 -44.28125 C 16.625 -44.164062 18.023438 -43.765625 19.390625 -43.078125 C 21.796875 -42.285156 23 -40.628906 23 -38.109375 C 23.113281 -36.617188 23.226562 -35.128906 23.34375 -33.640625 C 23.457031 -32.148438 23.570312 -30.664062 23.6875 -29.1875 C 23.6875 -28.726562 23.800781 -28.269531 24.03125 -27.8125 C 24.257812 -27.351562 24.488281 -26.835938 24.71875 -26.265625 C 25.863281 -26.378906 26.976562 -26.4375 28.0625 -26.4375 C 29.15625 -26.4375 30.210938 -26.492188 31.234375 -26.609375 C 34.210938 -27.179688 35.757812 -28.894531 35.875 -31.75 C 35.875 -32.664062 35.875 -33.609375 35.875 -34.578125 C 35.875 -35.554688 35.875 -36.503906 35.875 -37.421875 C 35.875 -37.648438 35.84375 -37.9375 35.78125 -38.28125 C 35.726562 -38.625 35.703125 -39.023438 35.703125 -39.484375 C 34.785156 -40.398438 33.835938 -41.3125 32.859375 -42.21875 C 31.890625 -43.132812 30.894531 -44.109375 29.875 -45.140625 C 29.1875 -45.828125 28.5 -46.539062 27.8125 -47.28125 C 27.125 -48.03125 26.4375 -48.75 25.75 -49.4375 C 24.257812 -50.925781 22.65625 -52.359375 20.9375 -53.734375 C 19.332031 -54.984375 17.671875 -56.179688 15.953125 -57.328125 C 14.242188 -58.472656 12.585938 -59.675781 10.984375 -60.9375 C 9.953125 -61.738281 8.945312 -62.597656 7.96875 -63.515625 C 7 -64.429688 6.0625 -65.289062 5.15625 -66.09375 C 4.351562 -66.894531 3.75 -67.75 3.34375 -68.65625 C 2.945312 -69.570312 2.804688 -70.601562 2.921875 -71.75 C 2.921875 -72.320312 2.890625 -72.835938 2.828125 -73.296875 C 2.773438 -73.753906 2.691406 -74.210938 2.578125 -74.671875 C 2.003906 -77.765625 1.6875 -80.851562 1.625 -83.9375 C 1.570312 -87.03125 1.71875 -90.117188 2.0625 -93.203125 C 2.0625 -93.429688 2.0625 -93.71875 2.0625 -94.0625 C 2.0625 -94.40625 2.0625 -94.691406 2.0625 -94.921875 C 1.71875 -97.785156 1.742188 -100.617188 2.140625 -103.421875 C 2.546875 -106.222656 2.976562 -109 3.4375 -111.75 C 3.550781 -112.550781 3.75 -113.265625 4.03125 -113.890625 C 4.320312 -114.523438 4.640625 -115.1875 4.984375 -115.875 C 5.210938 -116.550781 5.609375 -117.085938 6.171875 -117.484375 C 6.742188 -117.890625 7.316406 -118.265625 7.890625 -118.609375 C 10.640625 -119.867188 13.671875 -120.582031 16.984375 -120.75 C 20.304688 -120.925781 23.398438 -121.015625 26.265625 -121.015625 C 29.347656 -121.015625 32.40625 -120.957031 35.4375 -120.84375 C 38.476562 -120.726562 41.539062 -120.671875 44.625 -120.671875 C 47.945312 -120.671875 51.328125 -120.328125 54.765625 -119.640625 C 57.273438 -119.296875 59.160156 -117.8125 60.421875 -115.1875 C 60.992188 -114.039062 61.363281 -112.804688 61.53125 -111.484375 C 61.707031 -110.171875 61.738281 -108.882812 61.625 -107.625 C 61.625 -105.5625 61.625 -103.5 61.625 -101.4375 C 61.625 -99.382812 61.625 -97.328125 61.625 -95.265625 C 61.625 -95.035156 61.625 -94.804688 61.625 -94.578125 C 61.625 -94.347656 61.625 -94.117188 61.625 -93.890625 C 61.507812 -92.523438 61.421875 -91.125 61.359375 -89.6875 C 61.304688 -88.257812 61.222656 -86.859375 61.109375 -85.484375 C 61.109375 -84.335938 61.050781 -83.25 60.9375 -82.21875 C 60.820312 -81.1875 60.535156 -80.101562 60.078125 -78.96875 C 58.585938 -78.164062 57.097656 -77.707031 55.609375 -77.59375 C 51.609375 -77.132812 47.546875 -76.90625 43.421875 -76.90625 C 42.742188 -76.90625 42.0625 -76.960938 41.375 -77.078125 C 40.6875 -77.191406 40 -77.304688 39.3125 -77.421875 Z M 39.3125 -77.421875 "/></g></g></g><g fill="#fa6e03" fill-opacity="1"><g transform="translate(218.55039, 228.864315)"><g><path d="M 38.796875 -40.859375 C 38.335938 -41.203125 37.617188 -41.429688 36.640625 -41.546875 C 35.671875 -41.660156 34.554688 -41.71875 33.296875 -41.71875 C 32.148438 -41.71875 31.035156 -41.6875 29.953125 -41.625 C 28.867188 -41.570312 27.984375 -41.546875 27.296875 -41.546875 C 27.179688 -41.546875 27.035156 -41.546875 26.859375 -41.546875 C 26.691406 -41.546875 26.550781 -41.546875 26.4375 -41.546875 C 26.09375 -39.597656 25.945312 -37.675781 26 -35.78125 C 26.0625 -33.894531 26.148438 -32.039062 26.265625 -30.21875 C 26.492188 -28.5 26.492188 -26.722656 26.265625 -24.890625 C 26.265625 -20.765625 26.09375 -17.15625 25.75 -14.0625 C 25.40625 -10.976562 24.660156 -7.4375 23.515625 -3.4375 C 23.171875 -1.945312 21.941406 -0.972656 19.828125 -0.515625 C 17.710938 -0.0546875 16.023438 0.171875 14.765625 0.171875 C 11.898438 0.171875 9.238281 -0.539062 6.78125 -1.96875 C 4.320312 -3.40625 2.863281 -5.664062 2.40625 -8.75 C 1.601562 -15.5 1.085938 -22.304688 0.859375 -29.171875 C 0.628906 -36.046875 0.398438 -42.859375 0.171875 -49.609375 C 0.0546875 -53.273438 0.0546875 -56.96875 0.171875 -60.6875 C 0.285156 -64.40625 0.398438 -68.035156 0.515625 -71.578125 C 0.515625 -74.785156 0.570312 -77.960938 0.6875 -81.109375 C 0.800781 -84.253906 0.800781 -87.429688 0.6875 -90.640625 C 0.570312 -94.640625 0.539062 -98.582031 0.59375 -102.46875 C 0.65625 -106.363281 1.203125 -110.203125 2.234375 -113.984375 C 2.921875 -116.953125 4.207031 -118.894531 6.09375 -119.8125 C 7.976562 -120.726562 10.351562 -121.242188 13.21875 -121.359375 C 13.789062 -121.472656 14.363281 -121.53125 14.9375 -121.53125 C 15.507812 -121.53125 16.082031 -121.53125 16.65625 -121.53125 C 17.226562 -121.53125 17.796875 -121.53125 18.359375 -121.53125 C 18.929688 -121.53125 19.445312 -121.472656 19.90625 -121.359375 C 21.96875 -121.359375 23.34375 -120.84375 24.03125 -119.8125 C 24.71875 -118.78125 25.0625 -117.296875 25.0625 -115.359375 C 25.289062 -109.054688 25.546875 -102.785156 25.828125 -96.546875 C 26.117188 -90.316406 26.265625 -84.054688 26.265625 -77.765625 C 26.265625 -75.929688 26.265625 -74.066406 26.265625 -72.171875 C 26.265625 -70.285156 26.265625 -68.375 26.265625 -66.4375 C 26.265625 -66.320312 26.378906 -66.035156 26.609375 -65.578125 C 28.554688 -65.691406 30.53125 -65.773438 32.53125 -65.828125 C 34.53125 -65.890625 36.503906 -65.976562 38.453125 -66.09375 C 38.566406 -66.320312 38.625 -66.609375 38.625 -66.953125 C 38.851562 -71.410156 39.164062 -75.84375 39.5625 -80.25 C 39.96875 -84.65625 40.054688 -89.03125 39.828125 -93.375 C 39.710938 -95.550781 39.65625 -97.695312 39.65625 -99.8125 C 39.65625 -101.9375 39.65625 -104.082031 39.65625 -106.25 C 39.65625 -107.164062 39.679688 -108.140625 39.734375 -109.171875 C 39.796875 -110.203125 39.828125 -111.234375 39.828125 -112.265625 C 39.828125 -115.234375 40.484375 -117.375 41.796875 -118.6875 C 43.109375 -120.007812 45.3125 -120.898438 48.40625 -121.359375 C 49.09375 -121.585938 49.804688 -121.703125 50.546875 -121.703125 C 51.296875 -121.703125 52.015625 -121.703125 52.703125 -121.703125 C 53.960938 -121.703125 55.160156 -121.644531 56.296875 -121.53125 C 57.441406 -121.414062 58.585938 -121.242188 59.734375 -121.015625 C 63.054688 -120.328125 64.773438 -118.269531 64.890625 -114.84375 C 65.234375 -109.113281 65.234375 -103.332031 64.890625 -97.5 C 64.773438 -95.894531 64.773438 -94.265625 64.890625 -92.609375 C 65.003906 -90.953125 65.0625 -89.320312 65.0625 -87.71875 C 65.40625 -73.988281 65.578125 -60.3125 65.578125 -46.6875 C 65.578125 -45.3125 65.519531 -43.910156 65.40625 -42.484375 C 65.289062 -41.054688 65.234375 -39.65625 65.234375 -38.28125 C 65.117188 -36.5625 65.03125 -34.84375 64.96875 -33.125 C 64.914062 -31.414062 64.832031 -29.703125 64.71875 -27.984375 C 64.601562 -25.347656 64.546875 -22.628906 64.546875 -19.828125 C 64.546875 -17.023438 64.375 -14.304688 64.03125 -11.671875 C 63.800781 -10.066406 63.597656 -8.265625 63.421875 -6.265625 C 63.253906 -4.265625 62.367188 -2.75 60.765625 -1.71875 C 60.191406 -1.375 59.5625 -1.144531 58.875 -1.03125 C 58.1875 -0.914062 57.441406 -0.800781 56.640625 -0.6875 C 55.160156 -0.570312 53.675781 -0.484375 52.1875 -0.421875 C 50.695312 -0.367188 49.148438 -0.34375 47.546875 -0.34375 C 45.367188 -0.34375 43.820312 -0.769531 42.90625 -1.625 C 42 -2.488281 41.257812 -3.894531 40.6875 -5.84375 C 39.65625 -9.84375 39.28125 -13.929688 39.5625 -18.109375 C 39.851562 -22.285156 39.941406 -26.4375 39.828125 -30.5625 C 39.710938 -31.582031 39.566406 -32.632812 39.390625 -33.71875 C 39.222656 -34.8125 39.140625 -35.875 39.140625 -36.90625 C 39.023438 -37.363281 39.050781 -38.019531 39.21875 -38.875 C 39.394531 -39.738281 39.367188 -40.34375 39.140625 -40.6875 C 39.023438 -40.6875 38.96875 -40.710938 38.96875 -40.765625 C 38.96875 -40.828125 38.910156 -40.859375 38.796875 -40.859375 Z M 38.796875 -40.859375 "/></g></g></g></svg>