<svg xmlns="http://www.w3.org/2000/svg" xmlns:xlink="http://www.w3.org/1999/xlink" width="1080" zoomAndPan="magnify" viewBox="0 0 810 1439.999935" height="1920" preserveAspectRatio="xMidYMid meet" version="1.0"><defs><g/></defs><g fill="#fa6e03" fill-opacity="1"><g transform="translate(9.374387, 883.511873)"><g><path d="M 241.5625 -327.734375 C 238.84375 -324.566406 235.898438 -321.851562 232.734375 -319.59375 C 229.566406 -317.332031 225.722656 -315.75 221.203125 -314.84375 C 218.484375 -314.382812 215.878906 -313.703125 213.390625 -312.796875 C 210.910156 -311.898438 208.539062 -311.222656 206.28125 -310.765625 C 199.945312 -310.316406 193.5 -310.09375 186.9375 -310.09375 C 180.375 -310.09375 173.703125 -309.863281 166.921875 -309.40625 C 157.421875 -313.9375 152.441406 -321.628906 151.984375 -332.484375 C 151.535156 -337.453125 150.859375 -342.195312 149.953125 -346.71875 C 149.046875 -351.25 148.140625 -356.003906 147.234375 -360.984375 C 144.972656 -361.429688 142.710938 -361.65625 140.453125 -361.65625 C 138.191406 -361.65625 135.929688 -361.65625 133.671875 -361.65625 C 128.691406 -361.65625 123.597656 -361.203125 118.390625 -360.296875 C 113.191406 -359.390625 108.109375 -357.804688 103.140625 -355.546875 C 102.679688 -353.285156 102 -351.023438 101.09375 -348.765625 C 100.195312 -346.503906 99.519531 -344.242188 99.0625 -341.984375 C 99.0625 -334.285156 99.0625 -326.476562 99.0625 -318.5625 C 99.0625 -310.65625 99.0625 -302.628906 99.0625 -294.484375 C 100.875 -294.484375 102.457031 -294.484375 103.8125 -294.484375 C 105.164062 -294.484375 106.75 -294.484375 108.5625 -294.484375 C 114.894531 -294.929688 121.113281 -295.15625 127.21875 -295.15625 C 133.332031 -295.15625 139.328125 -295.382812 145.203125 -295.84375 C 153.796875 -295.84375 161.144531 -293.46875 167.25 -288.71875 C 173.363281 -283.96875 176.421875 -277.066406 176.421875 -268.015625 C 176.867188 -261.679688 177.429688 -255.234375 178.109375 -248.671875 C 178.785156 -242.117188 179.351562 -235.675781 179.8125 -229.34375 C 179.8125 -225.726562 179.695312 -221.992188 179.46875 -218.140625 C 179.238281 -214.296875 178.898438 -210.566406 178.453125 -206.953125 C 177.097656 -197.898438 172.125 -192.242188 163.53125 -189.984375 C 160.363281 -189.078125 157.304688 -188.398438 154.359375 -187.953125 C 151.421875 -187.503906 148.597656 -187.050781 145.890625 -186.59375 C 141.359375 -186.144531 137.054688 -185.921875 132.984375 -185.921875 C 128.921875 -185.921875 124.851562 -185.921875 120.78125 -185.921875 C 118.0625 -185.460938 115.34375 -185.117188 112.625 -184.890625 C 109.914062 -184.671875 107.207031 -184.109375 104.5 -183.203125 C 103.59375 -181.390625 103.140625 -180.03125 103.140625 -179.125 C 103.140625 -170.082031 103.140625 -160.921875 103.140625 -151.640625 C 103.140625 -142.367188 103.140625 -133.210938 103.140625 -124.171875 C 104.046875 -111.503906 110.832031 -104.492188 123.5 -103.140625 C 123.945312 -103.140625 124.394531 -103.140625 124.84375 -103.140625 C 125.300781 -103.140625 125.753906 -103.140625 126.203125 -103.140625 C 129.828125 -103.140625 133.332031 -103.140625 136.71875 -103.140625 C 140.113281 -103.140625 143.617188 -102.910156 147.234375 -102.453125 C 150.859375 -107.429688 152.554688 -112.972656 152.328125 -119.078125 C 152.097656 -125.191406 152.890625 -131.640625 154.703125 -138.421875 C 156.054688 -141.128906 159.785156 -143.273438 165.890625 -144.859375 C 172.003906 -146.441406 178.90625 -147.457031 186.59375 -147.90625 C 194.28125 -148.363281 201.515625 -148.707031 208.296875 -148.9375 C 215.085938 -149.164062 219.84375 -149.28125 222.5625 -149.28125 C 226.632812 -149.726562 230.140625 -148.707031 233.078125 -146.21875 C 236.015625 -143.726562 238.390625 -140.898438 240.203125 -137.734375 C 242.910156 -133.671875 244.265625 -129.375 244.265625 -124.84375 C 245.171875 -118.96875 245.847656 -112.863281 246.296875 -106.53125 C 246.753906 -100.195312 246.984375 -93.863281 246.984375 -87.53125 C 246.984375 -80.75 246.984375 -73.960938 246.984375 -67.171875 C 246.984375 -60.390625 246.53125 -53.601562 245.625 -46.8125 C 244.269531 -35.957031 239.296875 -27.140625 230.703125 -20.359375 C 223.015625 -14.472656 212.382812 -10.0625 198.8125 -7.125 C 185.238281 -4.1875 171.328125 -2.375 157.078125 -1.6875 C 142.828125 -1.007812 130.5 -0.671875 120.09375 -0.671875 C 111.5 -0.671875 103.128906 -0.894531 94.984375 -1.34375 C 86.847656 -1.800781 78.484375 -2.710938 69.890625 -4.078125 C 48.171875 -6.785156 33.015625 -12.773438 24.421875 -22.046875 C 15.828125 -31.328125 9.492188 -46.597656 5.421875 -67.859375 C 2.253906 -82.328125 0.785156 -97.140625 1.015625 -112.296875 C 1.242188 -127.453125 1.128906 -142.492188 0.671875 -157.421875 C 0.222656 -187.722656 0.222656 -218.484375 0.671875 -249.703125 C 1.128906 -261.460938 1.8125 -273.109375 2.71875 -284.640625 C 3.625 -296.179688 4.300781 -307.601562 4.75 -318.90625 C 5.65625 -333.382812 5.992188 -348.3125 5.765625 -363.6875 C 5.535156 -379.070312 7.226562 -394 10.84375 -408.46875 C 14.46875 -422.945312 21.9375 -435.84375 33.25 -447.15625 C 41.84375 -456.195312 52.359375 -462.863281 64.796875 -467.15625 C 77.234375 -471.457031 90.125 -474.285156 103.46875 -475.640625 C 116.820312 -477.003906 129.378906 -477.6875 141.140625 -477.6875 C 148.367188 -477.6875 155.601562 -477.570312 162.84375 -477.34375 C 170.082031 -477.113281 177.320312 -477 184.5625 -477 C 193.601562 -477 203.4375 -476.09375 214.0625 -474.28125 C 224.695312 -472.476562 231.828125 -466.828125 235.453125 -457.328125 C 236.804688 -454.160156 238.160156 -450.992188 239.515625 -447.828125 C 240.878906 -444.660156 242.238281 -441.492188 243.59375 -438.328125 C 244.945312 -434.710938 245.507812 -430.867188 245.28125 -426.796875 C 245.0625 -422.722656 244.5 -418.878906 243.59375 -415.265625 C 243.144531 -413.003906 242.921875 -410.738281 242.921875 -408.46875 C 242.921875 -406.207031 242.921875 -403.945312 242.921875 -401.6875 C 242.460938 -389.476562 242.117188 -377.148438 241.890625 -364.703125 C 241.671875 -352.265625 241.5625 -339.941406 241.5625 -327.734375 Z M 241.5625 -327.734375 "/></g></g></g><g fill="#fa6e03" fill-opacity="1"><g transform="translate(269.914827, 883.511873)"><g><path d="M 155.390625 -306.015625 C 151.316406 -315.515625 149.28125 -324.898438 149.28125 -334.171875 C 149.28125 -343.453125 148.828125 -352.613281 147.921875 -361.65625 C 144.753906 -362.101562 141.585938 -362.441406 138.421875 -362.671875 C 135.253906 -362.898438 132.085938 -363.015625 128.921875 -363.015625 C 120.328125 -363.015625 112.1875 -361.429688 104.5 -358.265625 C 101.332031 -353.742188 99.519531 -349.109375 99.0625 -344.359375 C 98.613281 -339.609375 98.160156 -334.742188 97.703125 -329.765625 C 112.179688 -314.390625 127.445312 -299.914062 143.5 -286.34375 C 159.5625 -272.769531 176.414062 -260.101562 194.0625 -248.34375 C 201.300781 -243.820312 207.519531 -238.394531 212.71875 -232.0625 C 217.914062 -225.726562 223.234375 -219.394531 228.671875 -213.0625 C 231.835938 -207.175781 234.097656 -199.597656 235.453125 -190.328125 C 236.804688 -181.054688 237.820312 -171.671875 238.5 -162.171875 C 239.175781 -152.671875 239.515625 -144.523438 239.515625 -137.734375 C 239.972656 -124.617188 240.085938 -111.613281 239.859375 -98.71875 C 239.628906 -85.832031 239.289062 -72.828125 238.84375 -59.703125 C 238.394531 -53.828125 237.828125 -48.0625 237.140625 -42.40625 C 236.460938 -36.75 235.671875 -30.984375 234.765625 -25.109375 C 234.316406 -22.390625 233.410156 -20.007812 232.046875 -17.96875 C 230.691406 -15.9375 228.882812 -13.789062 226.625 -11.53125 C 221.65625 -7.914062 216.226562 -5.203125 210.34375 -3.390625 C 204.46875 -1.578125 198.363281 -0.445312 192.03125 0 C 183.882812 0.445312 175.738281 0.671875 167.59375 0.671875 C 159.457031 0.671875 151.316406 0.898438 143.171875 1.359375 C 137.742188 1.804688 132.425781 2.144531 127.21875 2.375 C 122.019531 2.601562 116.707031 2.71875 111.28125 2.71875 C 104.488281 2.71875 97.703125 2.375 90.921875 1.6875 C 84.140625 1.007812 77.582031 0.445312 71.25 0 C 67.625 -0.445312 64.003906 -0.785156 60.390625 -1.015625 C 56.773438 -1.242188 53.15625 -1.582031 49.53125 -2.03125 C 45.007812 -2.9375 40.484375 -3.613281 35.953125 -4.0625 C 31.429688 -4.519531 26.910156 -5.203125 22.390625 -6.109375 C 19.222656 -7.015625 16.734375 -8.367188 14.921875 -10.171875 C 11.753906 -13.796875 9.039062 -17.53125 6.78125 -21.375 C 4.519531 -25.21875 3.164062 -29.628906 2.71875 -34.609375 C 1.351562 -49.078125 0.671875 -63.320312 0.671875 -77.34375 C 0.671875 -91.375 0.671875 -105.398438 0.671875 -119.421875 C 0.671875 -133.441406 3.382812 -146.101562 8.8125 -157.40625 C 14.25 -168.71875 25.332031 -174.828125 42.0625 -175.734375 C 48.394531 -175.734375 54.390625 -175.503906 60.046875 -175.046875 C 65.703125 -174.597656 71.242188 -173.019531 76.671875 -170.3125 C 86.171875 -167.144531 90.921875 -160.585938 90.921875 -150.640625 C 91.378906 -144.753906 91.832031 -138.867188 92.28125 -132.984375 C 92.726562 -127.109375 93.179688 -121.226562 93.640625 -115.34375 C 93.640625 -113.539062 94.085938 -111.734375 94.984375 -109.921875 C 95.890625 -108.109375 96.796875 -106.070312 97.703125 -103.8125 C 102.234375 -104.269531 106.644531 -104.5 110.9375 -104.5 C 115.238281 -104.5 119.425781 -104.722656 123.5 -105.171875 C 135.257812 -107.429688 141.363281 -114.21875 141.8125 -125.53125 C 141.8125 -129.144531 141.8125 -132.875 141.8125 -136.71875 C 141.8125 -140.5625 141.8125 -144.296875 141.8125 -147.921875 C 141.8125 -148.828125 141.695312 -149.957031 141.46875 -151.3125 C 141.25 -152.664062 141.140625 -154.25 141.140625 -156.0625 C 137.515625 -159.675781 133.78125 -163.289062 129.9375 -166.90625 C 126.09375 -170.53125 122.132812 -174.378906 118.0625 -178.453125 C 115.351562 -181.171875 112.640625 -184 109.921875 -186.9375 C 107.203125 -189.875 104.488281 -192.703125 101.78125 -195.421875 C 95.894531 -201.296875 89.5625 -206.945312 82.78125 -212.375 C 76.445312 -217.351562 69.882812 -222.101562 63.09375 -226.625 C 56.3125 -231.15625 49.753906 -235.90625 43.421875 -240.875 C 39.347656 -244.039062 35.390625 -247.429688 31.546875 -251.046875 C 27.703125 -254.671875 23.972656 -258.066406 20.359375 -261.234375 C 17.191406 -264.398438 14.816406 -267.789062 13.234375 -271.40625 C 11.648438 -275.03125 11.082031 -279.101562 11.53125 -283.625 C 11.53125 -285.882812 11.414062 -287.921875 11.1875 -289.734375 C 10.96875 -291.546875 10.628906 -293.351562 10.171875 -295.15625 C 7.910156 -307.375 6.664062 -319.585938 6.4375 -331.796875 C 6.21875 -344.015625 6.785156 -356.226562 8.140625 -368.4375 C 8.140625 -369.34375 8.140625 -370.472656 8.140625 -371.828125 C 8.140625 -373.191406 8.140625 -374.328125 8.140625 -375.234375 C 6.785156 -386.535156 6.898438 -397.726562 8.484375 -408.8125 C 10.066406 -419.894531 11.765625 -430.863281 13.578125 -441.71875 C 14.023438 -444.882812 14.8125 -447.710938 15.9375 -450.203125 C 17.070312 -452.691406 18.316406 -455.296875 19.671875 -458.015625 C 20.578125 -460.722656 22.160156 -462.867188 24.421875 -464.453125 C 26.679688 -466.035156 28.945312 -467.503906 31.21875 -468.859375 C 42.070312 -473.835938 54.054688 -476.664062 67.171875 -477.34375 C 80.296875 -478.019531 92.507812 -478.359375 103.8125 -478.359375 C 116.03125 -478.359375 128.128906 -478.128906 140.109375 -477.671875 C 152.097656 -477.222656 164.203125 -477 176.421875 -477 C 189.535156 -477 202.878906 -475.644531 216.453125 -472.9375 C 226.398438 -471.582031 233.863281 -465.703125 238.84375 -455.296875 C 241.101562 -450.773438 242.570312 -445.910156 243.25 -440.703125 C 243.925781 -435.503906 244.039062 -430.414062 243.59375 -425.4375 C 243.59375 -417.289062 243.59375 -409.144531 243.59375 -401 C 243.59375 -392.863281 243.59375 -384.722656 243.59375 -376.578125 C 243.59375 -375.679688 243.59375 -374.78125 243.59375 -373.875 C 243.59375 -372.96875 243.59375 -372.0625 243.59375 -371.15625 C 243.144531 -365.726562 242.804688 -360.1875 242.578125 -354.53125 C 242.347656 -348.875 242.007812 -343.332031 241.5625 -337.90625 C 241.5625 -333.382812 241.332031 -329.085938 240.875 -325.015625 C 240.425781 -320.941406 239.296875 -316.644531 237.484375 -312.125 C 231.609375 -308.957031 225.726562 -307.148438 219.84375 -306.703125 C 204.007812 -304.890625 187.953125 -303.984375 171.671875 -303.984375 C 168.953125 -303.984375 166.234375 -304.207031 163.515625 -304.65625 C 160.804688 -305.113281 158.097656 -305.566406 155.390625 -306.015625 Z M 155.390625 -306.015625 "/></g></g></g><g fill="#fa6e03" fill-opacity="1"><g transform="translate(527.741252, 883.511873)"><g><path d="M 153.34375 -161.484375 C 151.539062 -162.847656 148.710938 -163.753906 144.859375 -164.203125 C 141.015625 -164.660156 136.609375 -164.890625 131.640625 -164.890625 C 127.109375 -164.890625 122.691406 -164.773438 118.390625 -164.546875 C 114.097656 -164.316406 110.597656 -164.203125 107.890625 -164.203125 C 107.429688 -164.203125 106.863281 -164.203125 106.1875 -164.203125 C 105.507812 -164.203125 104.945312 -164.203125 104.5 -164.203125 C 103.132812 -156.515625 102.566406 -148.9375 102.796875 -141.46875 C 103.023438 -134.007812 103.363281 -126.660156 103.8125 -119.421875 C 104.71875 -112.640625 104.71875 -105.628906 103.8125 -98.390625 C 103.8125 -82.097656 103.132812 -67.84375 101.78125 -55.625 C 100.425781 -43.414062 97.484375 -29.398438 92.953125 -13.578125 C 91.597656 -7.691406 86.734375 -3.84375 78.359375 -2.03125 C 69.992188 -0.226562 63.328125 0.671875 58.359375 0.671875 C 47.046875 0.671875 36.523438 -2.148438 26.796875 -7.796875 C 17.078125 -13.453125 11.3125 -22.390625 9.5 -34.609375 C 6.332031 -61.296875 4.296875 -88.207031 3.390625 -115.34375 C 2.484375 -142.488281 1.578125 -169.40625 0.671875 -196.09375 C 0.222656 -210.570312 0.222656 -225.160156 0.671875 -239.859375 C 1.128906 -254.554688 1.582031 -268.921875 2.03125 -282.953125 C 2.03125 -295.617188 2.253906 -308.171875 2.703125 -320.609375 C 3.160156 -333.046875 3.164062 -345.597656 2.71875 -358.265625 C 2.257812 -374.097656 2.144531 -389.703125 2.375 -405.078125 C 2.601562 -420.460938 4.753906 -435.617188 8.828125 -450.546875 C 11.535156 -462.304688 16.617188 -469.992188 24.078125 -473.609375 C 31.546875 -477.234375 40.9375 -479.269531 52.25 -479.71875 C 54.507812 -480.175781 56.769531 -480.40625 59.03125 -480.40625 C 61.289062 -480.40625 63.550781 -480.40625 65.8125 -480.40625 C 68.070312 -480.40625 70.332031 -480.40625 72.59375 -480.40625 C 74.863281 -480.40625 76.898438 -480.175781 78.703125 -479.71875 C 86.847656 -479.71875 92.273438 -477.679688 94.984375 -473.609375 C 97.703125 -469.546875 99.0625 -463.664062 99.0625 -455.96875 C 99.96875 -431.09375 100.984375 -406.328125 102.109375 -381.671875 C 103.242188 -357.015625 103.8125 -332.25 103.8125 -307.375 C 103.8125 -300.132812 103.8125 -292.78125 103.8125 -285.3125 C 103.8125 -277.851562 103.8125 -270.28125 103.8125 -262.59375 C 103.8125 -262.132812 104.265625 -261.003906 105.171875 -259.203125 C 112.859375 -259.648438 120.660156 -259.988281 128.578125 -260.21875 C 136.492188 -260.445312 144.296875 -260.785156 151.984375 -261.234375 C 152.441406 -262.140625 152.671875 -263.269531 152.671875 -264.625 C 153.578125 -282.269531 154.820312 -299.800781 156.40625 -317.21875 C 157.988281 -334.632812 158.328125 -351.9375 157.421875 -369.125 C 156.960938 -377.71875 156.734375 -386.195312 156.734375 -394.5625 C 156.734375 -402.9375 156.734375 -411.421875 156.734375 -420.015625 C 156.734375 -423.628906 156.847656 -427.472656 157.078125 -431.546875 C 157.304688 -435.617188 157.421875 -439.691406 157.421875 -443.765625 C 157.421875 -455.523438 160.019531 -464.003906 165.21875 -469.203125 C 170.425781 -474.398438 179.132812 -477.90625 191.34375 -479.71875 C 194.0625 -480.625 196.890625 -481.078125 199.828125 -481.078125 C 202.765625 -481.078125 205.59375 -481.078125 208.3125 -481.078125 C 213.28125 -481.078125 218.023438 -480.847656 222.546875 -480.390625 C 227.078125 -479.941406 231.601562 -479.265625 236.125 -478.359375 C 249.25 -475.648438 256.035156 -467.507812 256.484375 -453.9375 C 257.835938 -431.320312 257.835938 -408.476562 256.484375 -385.40625 C 256.035156 -379.070312 256.035156 -372.625 256.484375 -366.0625 C 256.929688 -359.507812 257.15625 -353.066406 257.15625 -346.734375 C 258.519531 -292.453125 259.203125 -238.394531 259.203125 -184.5625 C 259.203125 -179.132812 258.972656 -173.59375 258.515625 -167.9375 C 258.066406 -162.28125 257.84375 -156.738281 257.84375 -151.3125 C 257.382812 -144.53125 257.039062 -137.742188 256.8125 -130.953125 C 256.59375 -124.171875 256.257812 -117.382812 255.8125 -110.59375 C 255.351562 -100.195312 255.125 -89.457031 255.125 -78.375 C 255.125 -67.289062 254.445312 -56.546875 253.09375 -46.140625 C 252.1875 -39.804688 251.394531 -32.679688 250.71875 -24.765625 C 250.039062 -16.847656 246.535156 -10.851562 240.203125 -6.78125 C 237.941406 -5.425781 235.453125 -4.519531 232.734375 -4.0625 C 230.023438 -3.613281 227.085938 -3.164062 223.921875 -2.71875 C 218.035156 -2.257812 212.148438 -1.914062 206.265625 -1.6875 C 200.390625 -1.46875 194.285156 -1.359375 187.953125 -1.359375 C 179.359375 -1.359375 173.25 -3.050781 169.625 -6.4375 C 166.007812 -9.832031 163.070312 -15.375 160.8125 -23.0625 C 156.738281 -38.894531 155.265625 -55.066406 156.390625 -71.578125 C 157.523438 -88.085938 157.867188 -104.488281 157.421875 -120.78125 C 156.960938 -124.851562 156.394531 -129.035156 155.71875 -133.328125 C 155.039062 -137.628906 154.703125 -141.816406 154.703125 -145.890625 C 154.253906 -147.691406 154.367188 -150.289062 155.046875 -153.6875 C 155.722656 -157.082031 155.609375 -159.457031 154.703125 -160.8125 C 154.253906 -160.8125 154.03125 -160.921875 154.03125 -161.140625 C 154.03125 -161.367188 153.800781 -161.484375 153.34375 -161.484375 Z M 153.34375 -161.484375 "/></g></g></g></svg>